REM DIRINDEX 1\3,1\4,1\5,1\6,1\2\7,1\2\8,1\2\9,1\10
REM DIRNAME cjc056,folder01,folder02,folder03,folder04,folder05,folder06,folder07,folder08,folder09
TITLE ""
FILE "2-55 Level 6-1012-1021.mp3" MP3
  TRACK 01 AUDIO
    TITLE "0:"
    INDEX 01 00:00:00
  TRACK 02 AUDIO
    TITLE "7:cjc056_3448"
    INDEX 01 00:00:07
  TRACK 03 AUDIO
    TITLE "0:"
    INDEX 01 00:01:13
  TRACK 04 AUDIO
    TITLE "8:cjc056_3449"
    INDEX 01 00:01:24
  TRACK 05 AUDIO
    TITLE "0:"
    INDEX 01 00:03:33
  TRACK 06 AUDIO
    TITLE "9:cjc056_3450"
    INDEX 01 00:03:47
  TRACK 07 AUDIO
    TITLE "0:"
    INDEX 01 00:04:70
  TRACK 08 AUDIO
    TITLE "7:cjc056_3451"
    INDEX 01 00:05:42
  TRACK 09 AUDIO
    TITLE "0:"
    INDEX 01 00:06:49
  TRACK 10 AUDIO
    TITLE "8:cjc056_3452"
    INDEX 01 00:06:61
  TRACK 11 AUDIO
    TITLE "0:"
    INDEX 01 00:08:21
  TRACK 12 AUDIO
    TITLE "9:cjc056_3453"
    INDEX 01 00:08:34
  TRACK 13 AUDIO
    TITLE "0:"
    INDEX 01 00:10:18
  TRACK 14 AUDIO
    TITLE "7:cjc056_3454"
    INDEX 01 00:10:68
  TRACK 15 AUDIO
    TITLE "0:"
    INDEX 01 00:12:22
  TRACK 16 AUDIO
    TITLE "8:cjc056_3455"
    INDEX 01 00:12:36
  TRACK 17 AUDIO
    TITLE "0:"
    INDEX 01 00:14:13
  TRACK 18 AUDIO
    TITLE "9:cjc056_3456"
    INDEX 01 00:14:27
  TRACK 19 AUDIO
    TITLE "0:"
    INDEX 01 00:17:08
  TRACK 20 AUDIO
    TITLE "7:cjc056_3457"
    INDEX 01 00:17:59
  TRACK 21 AUDIO
    TITLE "0:"
    INDEX 01 00:18:60
  TRACK 22 AUDIO
    TITLE "8:cjc056_3458"
    INDEX 01 00:18:74
  TRACK 23 AUDIO
    TITLE "0:"
    INDEX 01 00:20:14
  TRACK 24 AUDIO
    TITLE "9:cjc056_3459"
    INDEX 01 00:20:26
  TRACK 25 AUDIO
    TITLE "0:"
    INDEX 01 00:24:04
  TRACK 26 AUDIO
    TITLE "7:cjc056_3460"
    INDEX 01 00:24:53
  TRACK 27 AUDIO
    TITLE "0:"
    INDEX 01 00:25:50
  TRACK 28 AUDIO
    TITLE "8:cjc056_3461"
    INDEX 01 00:25:64
  TRACK 29 AUDIO
    TITLE "0:"
    INDEX 01 00:27:55
  TRACK 30 AUDIO
    TITLE "9:cjc056_3462"
    INDEX 01 00:27:69
  TRACK 31 AUDIO
    TITLE "0:"
    INDEX 01 00:30:03
  TRACK 32 AUDIO
    TITLE "7:cjc056_3463"
    INDEX 01 00:30:50
  TRACK 33 AUDIO
    TITLE "0:"
    INDEX 01 00:31:57
  TRACK 34 AUDIO
    TITLE "8:cjc056_3464"
    INDEX 01 00:32:00
  TRACK 35 AUDIO
    TITLE "0:"
    INDEX 01 00:33:24
  TRACK 36 AUDIO
    TITLE "9:cjc056_3465"
    INDEX 01 00:33:36
  TRACK 37 AUDIO
    TITLE "0:"
    INDEX 01 00:36:31
  TRACK 38 AUDIO
    TITLE "7:cjc056_3466"
    INDEX 01 00:37:07
  TRACK 39 AUDIO
    TITLE "0:"
    INDEX 01 00:38:20
  TRACK 40 AUDIO
    TITLE "8:cjc056_3467"
    INDEX 01 00:38:33
  TRACK 41 AUDIO
    TITLE "0:"
    INDEX 01 00:39:51
  TRACK 42 AUDIO
    TITLE "9:cjc056_3468"
    INDEX 01 00:39:64
  TRACK 43 AUDIO
    TITLE "0:"
    INDEX 01 00:42:66
  TRACK 44 AUDIO
    TITLE "7:cjc056_3469"
    INDEX 01 00:43:44
  TRACK 45 AUDIO
    TITLE "0:"
    INDEX 01 00:44:54
  TRACK 46 AUDIO
    TITLE "8:cjc056_3470"
    INDEX 01 00:44:67
  TRACK 47 AUDIO
    TITLE "0:"
    INDEX 01 00:46:06
  TRACK 48 AUDIO
    TITLE "9:cjc056_3471"
    INDEX 01 00:46:17
  TRACK 49 AUDIO
    TITLE "0:"
    INDEX 01 00:49:37
  TRACK 50 AUDIO
    TITLE "7:cjc056_3472"
    INDEX 01 00:50:11
  TRACK 51 AUDIO
    TITLE "0:"
    INDEX 01 00:51:28
  TRACK 52 AUDIO
    TITLE "8:cjc056_3473"
    INDEX 01 00:51:36
  TRACK 53 AUDIO
    TITLE "0:"
    INDEX 01 00:52:51
  TRACK 54 AUDIO
    TITLE "9:cjc056_3474"
    INDEX 01 00:52:65
  TRACK 55 AUDIO
    TITLE "0:"
    INDEX 01 00:55:63
  TRACK 56 AUDIO
    TITLE "7:cjc056_3475"
    INDEX 01 00:56:39
  TRACK 57 AUDIO
    TITLE "0:"
    INDEX 01 00:57:54
  TRACK 58 AUDIO
    TITLE "8:cjc056_3476"
    INDEX 01 00:57:66
  TRACK 59 AUDIO
    TITLE "0:"
    INDEX 01 00:59:04
  TRACK 60 AUDIO
    TITLE "9:cjc056_3477"
    INDEX 01 00:59:16
  TRACK 61 AUDIO
    TITLE "0:"
    INDEX 01 01:01:33
